<?xml version="1.0" standalone="no"?>
<svg xmlns="http://www.w3.org/2000/svg" xmlns:xlink="http://www.w3.org/1999/xlink" width="728pt" height="602pt" viewBox="0.00 0.00 728.05 602.00">
<g id="graph0" class="graph" transform="translate(4,598) scale(1)" data-name="G">

<polygon fill="white" stroke="none" points="-4,4 -4,-598 724.05,-598 724.05,4 -4,4" style=""/>
<!-- Battery -->
<g id="node1" class="node" pointer-events="visible" data-name="Battery">

<polygon fill="lightblue" stroke="black" points="292.69,-270 235.28,-270 235.28,-234 292.69,-234 292.69,-270" style=""/>
<text text-anchor="middle" x="263.99" y="-247.8" font-family="Times,serif" font-size="14.00" style="">Battery</text>
</g>
<!-- DroneComponent -->
<g id="node9" class="node" pointer-events="visible" data-name="DroneComponent">

<polygon fill="lightblue" stroke="black" points="549.24,-270 432.61,-270 432.61,-234 549.24,-234 549.24,-270" style=""/>
<text text-anchor="middle" x="490.92" y="-247.8" font-family="Times,serif" font-size="14.00" style="">DroneComponent</text>
</g>
<!-- Battery&#45;&gt;DroneComponent -->
<g id="edge2" class="edge" data-name="Battery-&gt;DroneComponent">

<path fill="none" stroke="blue" stroke-dasharray="1,5" d="M293.02,-252C324.91,-252 378.15,-252 421.23,-252" style=""/>
<polygon fill="blue" stroke="blue" points="421,-255.5 431,-252 421,-248.5 421,-255.5" style=""/>
<text text-anchor="middle" x="375.51" y="-256.2" font-family="Times,serif" font-size="14.00" style="">subClassOf</text>
</g>
<!-- Sensor -->
<g id="node2" class="node" pointer-events="visible" data-name="Sensor">

<polygon fill="lightblue" stroke="black" points="518.03,-143 463.81,-143 463.81,-107 518.03,-107 518.03,-143" style=""/>
<text text-anchor="middle" x="490.92" y="-120.8" font-family="Times,serif" font-size="14.00" style="">Sensor</text>
</g>
<!-- WeatherCondition -->
<g id="node3" class="node" pointer-events="visible" data-name="WeatherCondition">

<polygon fill="lightblue" stroke="black" points="323.9,-36 204.07,-36 204.07,0 323.9,0 323.9,-36" style=""/>
<text text-anchor="middle" x="263.99" y="-13.8" font-family="Times,serif" font-size="14.00" style="">WeatherCondition</text>
</g>
<!-- Environment -->
<g id="node11" class="node" pointer-events="visible" data-name="Environment">

<polygon fill="lightblue" stroke="black" points="535.52,-57 446.33,-57 446.33,-21 535.52,-21 535.52,-57" style=""/>
<text text-anchor="middle" x="490.92" y="-34.8" font-family="Times,serif" font-size="14.00" style="">Environment</text>
</g>
<!-- WeatherCondition&#45;&gt;Environment -->
<g id="edge7" class="edge" data-name="WeatherCondition-&gt;Environment">

<path fill="none" stroke="blue" stroke-dasharray="1,5" d="M324.18,-16.06C350.36,-15.93 381.47,-16.78 409.34,-20.2 417.66,-21.22 426.39,-22.76 434.89,-24.52" style=""/>
<polygon fill="blue" stroke="blue" points="433.9,-27.88 444.41,-26.61 435.4,-21.05 433.9,-27.88" style=""/>
<text text-anchor="middle" x="375.51" y="-25.2" font-family="Times,serif" font-size="14.00" style="">subClassOf</text>
</g>
<!-- FlightController -->
<g id="node4" class="node" pointer-events="visible" data-name="FlightController">

<polygon fill="lightblue" stroke="black" points="317.49,-324 210.49,-324 210.49,-288 317.49,-288 317.49,-324" style=""/>
<text text-anchor="middle" x="263.99" y="-301.8" font-family="Times,serif" font-size="14.00" style="">FlightController</text>
</g>
<!-- FlightController&#45;&gt;DroneComponent -->
<g id="edge3" class="edge" data-name="FlightController-&gt;DroneComponent">

<path fill="none" stroke="blue" stroke-dasharray="1,5" d="M317.87,-294.31C345.22,-288.17 379.12,-280.39 409.34,-273 413.29,-272.03 417.35,-271.02 421.44,-270" style=""/>
<polygon fill="blue" stroke="blue" points="422.01,-273.46 430.84,-267.61 420.29,-266.68 422.01,-273.46" style=""/>
<text text-anchor="middle" x="375.51" y="-293.2" font-family="Times,serif" font-size="14.00" style="">subClassOf</text>
</g>
<!-- Quadcopter -->
<g id="node5" class="node" pointer-events="visible" data-name="Quadcopter">

<polygon fill="lightblue" stroke="black" points="82.95,-90 1.34,-90 1.34,-54 82.95,-54 82.95,-90" style=""/>
<text text-anchor="middle" x="42.14" y="-67.8" font-family="Times,serif" font-size="14.00" style="">Quadcopter</text>
</g>
<!-- Drone -->
<g id="node6" class="node" pointer-events="visible" data-name="Drone">

<polygon fill="lightblue" stroke="black" points="290.99,-90 236.99,-90 236.99,-54 290.99,-54 290.99,-90" style=""/>
<text text-anchor="middle" x="263.99" y="-67.8" font-family="Times,serif" font-size="14.00" style="">Drone</text>
</g>
<!-- Quadcopter&#45;&gt;Drone -->
<g id="edge1" class="edge" data-name="Quadcopter-&gt;Drone">

<path fill="none" stroke="blue" stroke-dasharray="1,5" d="M83.21,-72C123.7,-72 185.79,-72 225.38,-72" style=""/>
<polygon fill="blue" stroke="blue" points="225.14,-75.5 235.14,-72 225.14,-68.5 225.14,-75.5" style=""/>
<text text-anchor="middle" x="144.28" y="-76.2" font-family="Times,serif" font-size="14.00" style="">subClassOf</text>
</g>
<!-- Drone&#45;&gt;Sensor -->
<g id="edge11" class="edge" data-name="Drone-&gt;Sensor">

<path fill="none" stroke="black" d="M291.23,-78.18C331,-87.55 406.7,-105.39 452.32,-116.14" style=""/>
<polygon fill="black" stroke="black" points="451.49,-119.54 462.03,-118.43 453.1,-112.73 451.49,-119.54" style=""/>
<text text-anchor="middle" x="375.51" y="-107.4" font-family="Times,serif" font-size="8.00" style="">hasSensor</text>
</g>
<!-- Drone&#45;&gt;DroneComponent -->
<g id="edge9" class="edge" data-name="Drone-&gt;DroneComponent">

<path fill="none" stroke="black" d="M291.27,-79.29C302.46,-83.51 314.92,-89.85 323.69,-99 338.31,-114.26 326.25,-128.58 341.69,-143 364.84,-164.61 382.68,-148.3 409.34,-165.4 433.59,-180.96 455.46,-205.48 470.28,-224.46" style=""/>
<polygon fill="black" stroke="black" points="467.42,-226.48 476.25,-232.33 472.99,-222.25 467.42,-226.48" style=""/>
<text text-anchor="middle" x="375.51" y="-168.4" font-family="Times,serif" font-size="8.00" style="">hasComponent</text>
</g>
<!-- Drone&#45;&gt;Environment -->
<g id="edge10" class="edge" data-name="Drone-&gt;Environment">

<path fill="none" stroke="black" d="M291.25,-67.98C306.06,-65.73 324.91,-62.88 341.69,-60.4 372.55,-55.84 407.04,-50.85 434.98,-46.84" style=""/>
<polygon fill="black" stroke="black" points="435.23,-50.34 444.63,-45.46 434.24,-43.41 435.23,-50.34" style=""/>
<text text-anchor="middle" x="375.51" y="-63.4" font-family="Times,serif" font-size="8.00" style="">operatesIn</text>
</g>
<!-- Obstacle -->
<g id="node7" class="node" pointer-events="visible" data-name="Obstacle">

<polygon fill="lightblue" stroke="black" points="720.04,-57 655.08,-57 655.08,-21 720.04,-21 720.04,-57" style=""/>
<text text-anchor="middle" x="687.56" y="-34.8" font-family="Times,serif" font-size="14.00" style="">Obstacle</text>
</g>
<!-- Obstacle&#45;&gt;Environment -->
<g id="edge6" class="edge" data-name="Obstacle-&gt;Environment">

<path fill="none" stroke="blue" stroke-dasharray="1,5" d="M654.84,-25.02C649.03,-23.02 642.95,-21.28 637.07,-20.2 607.55,-14.78 574.37,-18.37 547.19,-23.8" style=""/>
<polygon fill="blue" stroke="blue" points="546.46,-20.38 537.42,-25.9 547.93,-27.22 546.46,-20.38" style=""/>
<text text-anchor="middle" x="604.79" y="-25.2" font-family="Times,serif" font-size="14.00" style="">subClassOf</text>
</g>
<!-- CameraSensor -->
<g id="node8" class="node" pointer-events="visible" data-name="CameraSensor">

<polygon fill="lightblue" stroke="black" points="312.63,-216 215.34,-216 215.34,-180 312.63,-180 312.63,-216" style=""/>
<text text-anchor="middle" x="263.99" y="-193.8" font-family="Times,serif" font-size="14.00" style="">CameraSensor</text>
</g>
<!-- CameraSensor&#45;&gt;Sensor -->
<g id="edge4" class="edge" data-name="CameraSensor-&gt;Sensor">

<path fill="none" stroke="blue" stroke-dasharray="1,5" d="M313.04,-195.64C341.73,-193.03 378.47,-187.54 409.34,-176 426.22,-169.69 443.32,-159.52 457.4,-149.92" style=""/>
<polygon fill="blue" stroke="blue" points="459.23,-152.91 465.38,-144.29 455.19,-147.19 459.23,-152.91" style=""/>
<text text-anchor="middle" x="375.51" y="-196.2" font-family="Times,serif" font-size="14.00" style="">subClassOf</text>
</g>
<!-- LidarSensor -->
<g id="node10" class="node" pointer-events="visible" data-name="LidarSensor">

<polygon fill="lightblue" stroke="black" points="306.42,-144 221.56,-144 221.56,-108 306.42,-108 306.42,-144" style=""/>
<text text-anchor="middle" x="263.99" y="-121.8" font-family="Times,serif" font-size="14.00" style="">LidarSensor</text>
</g>
<!-- LidarSensor&#45;&gt;Sensor -->
<g id="edge5" class="edge" data-name="LidarSensor-&gt;Sensor">

<path fill="none" stroke="blue" stroke-dasharray="1,5" d="M306.77,-125.81C348.42,-125.63 411.83,-125.35 452.06,-125.17" style=""/>
<polygon fill="blue" stroke="blue" points="452,-128.67 461.98,-125.12 451.97,-121.67 452,-128.67" style=""/>
<text text-anchor="middle" x="375.51" y="-130.2" font-family="Times,serif" font-size="14.00" style="">subClassOf</text>
</g>
<!-- Environment&#45;&gt;Obstacle -->
<g id="edge8" class="edge" data-name="Environment-&gt;Obstacle">

<path fill="none" stroke="black" d="M535.6,-39C567.85,-39 611.51,-39 643.59,-39" style=""/>
<polygon fill="black" stroke="black" points="643.32,-42.5 653.32,-39 643.32,-35.5 643.32,-42.5" style=""/>
<text text-anchor="middle" x="604.79" y="-41.4" font-family="Times,serif" font-size="8.00" style="">hasObstacle</text>
</g>
<!-- DroneX -->
<g id="node12" class="node" pointer-events="visible" data-name="DroneX">

<ellipse fill="lightyellow" stroke="black" cx="42.14" cy="-468" rx="42.29" ry="18" style=""/>
<text text-anchor="middle" x="42.14" y="-463.8" font-family="Times,serif" font-size="14.00" style="">DroneX</text>
</g>
<!-- BatteryA -->
<g id="node13" class="node" pointer-events="visible" data-name="BatteryA">

<ellipse fill="lightyellow" stroke="black" cx="263.99" cy="-576" rx="46.37" ry="18" style=""/>
<text text-anchor="middle" x="263.99" y="-571.8" font-family="Times,serif" font-size="14.00" style="">BatteryA</text>
</g>
<!-- DroneX&#45;&gt;BatteryA -->
<g id="edge14" class="edge" data-name="DroneX-&gt;BatteryA">

<path fill="none" stroke="green" d="M55.86,-485.39C66.75,-499.1 83.59,-517.73 102.29,-529 135.02,-548.74 176.52,-560.6 209.15,-567.47" style=""/>
<polygon fill="green" stroke="green" points="208.32,-570.87 218.81,-569.4 209.69,-564.01 208.32,-570.87" style=""/>
<text text-anchor="middle" x="144.28" y="-565.2" font-family="Times,serif" font-size="14.00" style="">hasComponent</text>
</g>
<!-- LidarA -->
<g id="node14" class="node" pointer-events="visible" data-name="LidarA">

<ellipse fill="lightyellow" stroke="black" cx="263.99" cy="-522" rx="38.85" ry="18" style=""/>
<text text-anchor="middle" x="263.99" y="-517.8" font-family="Times,serif" font-size="14.00" style="">LidarA</text>
</g>
<!-- DroneX&#45;&gt;LidarA -->
<g id="edge13" class="edge" data-name="DroneX-&gt;LidarA">

<path fill="none" stroke="green" d="M74.5,-480.04C83.4,-483.21 93.16,-486.45 102.29,-489 139.92,-499.49 183.35,-508.21 215.57,-514.05" style=""/>
<polygon fill="green" stroke="green" points="214.96,-517.49 225.41,-515.8 216.18,-510.6 214.96,-517.49" style=""/>
<text text-anchor="middle" x="144.28" y="-512.2" font-family="Times,serif" font-size="14.00" style="">hasSensor</text>
</g>
<!-- FlightCtrlA -->
<g id="node16" class="node" pointer-events="visible" data-name="FlightCtrlA">

<ellipse fill="lightyellow" stroke="black" cx="263.99" cy="-468" rx="56.22" ry="18" style=""/>
<text text-anchor="middle" x="263.99" y="-463.8" font-family="Times,serif" font-size="14.00" style="">FlightCtrlA</text>
</g>
<!-- DroneX&#45;&gt;FlightCtrlA -->
<g id="edge15" class="edge" data-name="DroneX-&gt;FlightCtrlA">

<path fill="none" stroke="green" d="M84.75,-468C116.09,-468 159.7,-468 195.94,-468" style=""/>
<polygon fill="green" stroke="green" points="195.91,-471.5 205.91,-468 195.91,-464.5 195.91,-471.5" style=""/>
<text text-anchor="middle" x="144.28" y="-472.2" font-family="Times,serif" font-size="14.00" style="">hasComponent</text>
</g>
<!-- CameraA -->
<g id="node17" class="node" pointer-events="visible" data-name="CameraA">

<ellipse fill="lightyellow" stroke="black" cx="263.99" cy="-414" rx="48.08" ry="18" style=""/>
<text text-anchor="middle" x="263.99" y="-409.8" font-family="Times,serif" font-size="14.00" style="">CameraA</text>
</g>
<!-- DroneX&#45;&gt;CameraA -->
<g id="edge12" class="edge" data-name="DroneX-&gt;CameraA">

<path fill="none" stroke="green" d="M74.51,-456.09C83.41,-452.95 93.16,-449.73 102.29,-447.2 137.25,-437.49 177.19,-429.22 208.52,-423.37" style=""/>
<polygon fill="green" stroke="green" points="208.95,-426.85 218.15,-421.6 207.68,-419.96 208.95,-426.85" style=""/>
<text text-anchor="middle" x="144.28" y="-452.2" font-family="Times,serif" font-size="14.00" style="">hasSensor</text>
</g>
<!-- TestArena -->
<g id="node18" class="node" pointer-events="visible" data-name="TestArena">

<ellipse fill="lightyellow" stroke="black" cx="263.99" cy="-360" rx="51.01" ry="18" style=""/>
<text text-anchor="middle" x="263.99" y="-355.8" font-family="Times,serif" font-size="14.00" style="">TestArena</text>
</g>
<!-- DroneX&#45;&gt;TestArena -->
<g id="edge16" class="edge" data-name="DroneX-&gt;TestArena">

<path fill="none" stroke="green" d="M55.87,-450.67C66.77,-437.01 83.62,-418.45 102.29,-407.2 133.92,-388.13 173.73,-376.37 205.81,-369.35" style=""/>
<polygon fill="green" stroke="green" points="206.25,-372.83 215.32,-367.37 204.82,-365.98 206.25,-372.83" style=""/>
<text text-anchor="middle" x="144.28" y="-412.2" font-family="Times,serif" font-size="14.00" style="">operatesIn</text>
</g>
<!-- WallObstacle -->
<g id="node15" class="node" pointer-events="visible" data-name="WallObstacle">

<ellipse fill="lightyellow" stroke="black" cx="490.92" cy="-360" rx="63.68" ry="18" style=""/>
<text text-anchor="middle" x="490.92" y="-355.8" font-family="Times,serif" font-size="14.00" style="">WallObstacle</text>
</g>
<!-- TestArena&#45;&gt;WallObstacle -->
<g id="edge17" class="edge" data-name="TestArena-&gt;WallObstacle">

<path fill="none" stroke="green" d="M315.47,-360C345.01,-360 382.86,-360 415.75,-360" style=""/>
<polygon fill="green" stroke="green" points="415.64,-363.5 425.64,-360 415.64,-356.5 415.64,-363.5" style=""/>
<text text-anchor="middle" x="375.51" y="-364.2" font-family="Times,serif" font-size="14.00" style="">hasObstacle</text>
</g>
</g>
</svg>